<svg width="86" height="85" viewBox="0 0 86 85" fill="none" xmlns="http://www.w3.org/2000/svg">
<path id="Shape" fill-rule="evenodd" clip-rule="evenodd" d="M85.9971 38.3542L85.0789 50.3958L77.5664 49.9375C76.4399 55.4753 73.9353 60.6409 70.2834 64.9583L76.1473 72.0208L66.7984 79.7292L61.0387 72.7917C56.9843 75.1296 52.4981 76.6249 47.85 77.1875L47.2448 85L35.2039 84.1042L35.7882 76.4792C30.7028 75.3443 25.9473 73.056 21.8899 69.7917L16.2555 74.5833L8.38819 65.3958L13.96 60.6875C11.0315 55.8763 9.34635 50.414 9.05597 44.7917L0.938232 44.1667L1.83557 32.1458L10.4541 32.7917C11.8777 28.0854 14.3053 23.7428 17.5702 20.0625L13.1253 14.7083L22.4742 7L27.0027 12.5C31.2742 10.095 36.0294 8.67154 40.9218 8.33333L41.5478 0L53.5888 0.895833L52.9419 9.375C57.749 10.7138 62.2067 13.0811 66.0054 16.3125L72.6206 10.7083L80.4671 19.8958L73.7892 25.5833C75.9555 29.3387 77.3728 33.4774 77.9629 37.7708L85.9971 38.3542ZM23.3 41.2429C22.4451 52.4358 30.8375 62.2028 42.0486 63.0625C47.4429 63.4873 52.7842 61.7472 56.8892 58.2278C60.9943 54.7084 63.5242 49.7001 63.9185 44.3125C64.7611 33.1186 56.3579 23.3609 45.1458 22.5136C33.9337 21.6662 24.1549 30.05 23.3 41.2429Z" fill="#505F98"/>
</svg>
